<svg xmlns="http://www.w3.org/2000/svg" viewBox="0 0 291.813 51.03" id="apogee-logo-svg">
  <defs>
    <style>
      #container {
        fill: #fff;
      }
    </style>
  </defs>
  <g id="container">
    <g id="Group_57" data-name="Group 57">
      <path id="Path_65" data-name="Path 65" class="cls-1" d="M-.9,88.5l-2.1-5h-9.3l-2,5h-4.9l9.4-22.2h4.5L4.1,88.5ZM-7.6,72.1l-2.9,7.2h5.8Z" transform="translate(87.7 -60.5)"/>
      <path id="Path_66" data-name="Path 66" class="cls-1" d="M24.3,77.5a6.5,6.5,0,0,1-1.9,2.4,7.3,7.3,0,0,1-2.9,1.5,12.1,12.1,0,0,1-3.4.5H12.4v6.6H7.5V66.4h9a10.1,10.1,0,0,1,3.6.6,9.3,9.3,0,0,1,2.6,1.5A6.2,6.2,0,0,1,24.4,71a7.5,7.5,0,0,1,.6,3.1h0a7.4,7.4,0,0,1-.7,3.4Zm-4.2-3.3A3,3,0,0,0,19,71.7a4.4,4.4,0,0,0-2.9-.9H12.4v6.8h3.8a4.4,4.4,0,0,0,2.9-1,3.3,3.3,0,0,0,1-2.4Z" transform="translate(87.7 -60.5)"/>
      <path id="Path_67" data-name="Path 67" class="cls-1" d="M50.2,81.9a11.6,11.6,0,0,1-2.5,3.6A12.1,12.1,0,0,1,44,88a12.7,12.7,0,0,1-9.4,0,10.5,10.5,0,0,1-3.7-2.5,8.8,8.8,0,0,1-2.4-3.6,10.5,10.5,0,0,1-.9-4.4h0a11.3,11.3,0,0,1,.9-4.5,12.6,12.6,0,0,1,2.4-3.6A13.1,13.1,0,0,1,34.6,67a12.3,12.3,0,0,1,4.7-.9A11.9,11.9,0,0,1,44,67a10.8,10.8,0,0,1,3.7,2.4A10.1,10.1,0,0,1,50.2,73a12.3,12.3,0,0,1,.8,4.4h0A13.2,13.2,0,0,1,50.2,81.9ZM46,77.5a7.6,7.6,0,0,0-.5-2.7,6.9,6.9,0,0,0-1.4-2.2A5.1,5.1,0,0,0,42,71.1a6.6,6.6,0,0,0-2.7-.6,6,6,0,0,0-2.7.6,6,6,0,0,0-2.1,1.4,7.1,7.1,0,0,0-1.3,2.2,6.2,6.2,0,0,0-.5,2.7h0a5.8,5.8,0,0,0,.5,2.6,5.4,5.4,0,0,0,1.3,2.2,4.8,4.8,0,0,0,2.2,1.5,5.8,5.8,0,0,0,2.6.6,7.6,7.6,0,0,0,2.7-.5,8,8,0,0,0,2.1-1.5,10.2,10.2,0,0,0,1.4-2.2,7.6,7.6,0,0,0,.5-2.7Z" transform="translate(87.7 -60.5)"/>
      <path id="Path_68" data-name="Path 68" class="cls-1" d="M71.3,87.8A12.5,12.5,0,0,1,66,88.9a11.6,11.6,0,0,1-4.7-.9,9.5,9.5,0,0,1-3.7-2.4,12.1,12.1,0,0,1-2.4-3.5,13.4,13.4,0,0,1-.8-4.6h0a13.3,13.3,0,0,1,.8-4.5,12.6,12.6,0,0,1,2.4-3.6A13.1,13.1,0,0,1,61.3,67a11.8,11.8,0,0,1,4.6-.9,11.4,11.4,0,0,1,2.7.2l2.3.5,1.9,1,1.8,1.3-3.1,3.7-1.2-1L69,71.1l-1.5-.4-1.7-.2a5.4,5.4,0,0,0-2.5.6,4.8,4.8,0,0,0-2,1.5,7.7,7.7,0,0,0-1.4,2.1,8.6,8.6,0,0,0-.5,2.7h0a8.7,8.7,0,0,0,.5,2.8,8.3,8.3,0,0,0,1.4,2.2A8,8,0,0,0,63.4,84a7.6,7.6,0,0,0,2.7.5,7.8,7.8,0,0,0,4.6-1.4V80H65.8V75.8h9.6v9.6A16.4,16.4,0,0,1,71.3,87.8Z" transform="translate(87.7 -60.5)"/>
      <path id="Path_69" data-name="Path 69" class="cls-1" d="M80,88.5V66.4H96.6v4.3H84.8v4.5H95.2v4.3H84.8v4.7h12v4.3Z" transform="translate(87.7 -60.5)"/>
      <path id="Path_70" data-name="Path 70" class="cls-1" d="M101.1,88.5V66.4h16.6v4.3H105.9v4.5h10.4v4.3H105.9v4.7h12v4.3Z" transform="translate(87.7 -60.5)"/>
      <path id="Path_71" data-name="Path 71" class="cls-1" d="M136.5,71.2a9.8,9.8,0,0,0-2.2,2.3l-3.4-2.8a16,16,0,0,1,1.6-1.9,11.9,11.9,0,0,1,1.8-1.5,8.5,8.5,0,0,1,2.2-.9,9.8,9.8,0,0,1,2.6-.3,10.7,10.7,0,0,1,3.2.5,7.2,7.2,0,0,1,2.4,1.4,8,8,0,0,1,1.5,2.1,8.8,8.8,0,0,1,.5,2.9,6.1,6.1,0,0,1-.4,2.4,8.1,8.1,0,0,1-1,2.1,15.7,15.7,0,0,1-1.8,1.9,29.6,29.6,0,0,1-2.6,2.1l-3.6,2.8h9.6v4.2H130.6V84.6l7.3-6,1.8-1.5a7.1,7.1,0,0,0,1.2-1.3,3.4,3.4,0,0,0,.6-1.2,2.9,2.9,0,0,0-.6-3.4,2.8,2.8,0,0,0-2.1-.7A3.7,3.7,0,0,0,136.5,71.2Z" transform="translate(87.7 -60.5)"/>
      <path id="Path_72" data-name="Path 72" class="cls-1" d="M169.3,81.9a14.6,14.6,0,0,1-2,3.7,10.3,10.3,0,0,1-3.1,2.4,9.1,9.1,0,0,1-4.1.9,9,9,0,0,1-4-.9,9.4,9.4,0,0,1-5-6,14.8,14.8,0,0,1,0-9,10.5,10.5,0,0,1,2-3.6,9.3,9.3,0,0,1,3.1-2.5,10.4,10.4,0,0,1,8,0,9.2,9.2,0,0,1,3.1,2.4,12,12,0,0,1,2,3.7,15,15,0,0,1,.7,4.4,16.3,16.3,0,0,1-.7,4.5Zm-4.6-7.2a12.2,12.2,0,0,0-1-2.3,4.3,4.3,0,0,0-1.6-1.4,3.4,3.4,0,0,0-2-.6,3.3,3.3,0,0,0-1.9.6,4,4,0,0,0-1.5,1.4,5.5,5.5,0,0,0-1,2.2,12.7,12.7,0,0,0-.3,2.8,12,12,0,0,0,.3,2.8,8,8,0,0,0,1,2.3,4,4,0,0,0,1.5,1.4,3.6,3.6,0,0,0,2,.6,4.6,4.6,0,0,0,2-.5,5.4,5.4,0,0,0,1.5-1.5,11.2,11.2,0,0,0,1-2.2,12.7,12.7,0,0,0,.3-2.8,12,12,0,0,0-.3-2.8Z" transform="translate(87.7 -60.5)"/>
      <path id="Path_73" data-name="Path 73" class="cls-1" d="M178.8,66.3h3.3V88.5h-4.8V71.2l-3.9.9-1-3.9Z" transform="translate(87.7 -60.5)"/>
      <path id="Path_74" data-name="Path 74" class="cls-1" d="M203.5,81.7a9.1,9.1,0,0,1-1.9,3.8,8.1,8.1,0,0,1-3,2.5,8.8,8.8,0,0,1-4.1.9,10,10,0,0,1-4.1-.8,12.6,12.6,0,0,1-3.2-1.8l2.6-3.7a11.8,11.8,0,0,0,2.3,1.4,6.6,6.6,0,0,0,2.5.5,3.7,3.7,0,0,0,3.1-1.4,6.9,6.9,0,0,0,1.4-3.7,5.2,5.2,0,0,1-1.9,1.1,7.1,7.1,0,0,1-2.6.5,10.2,10.2,0,0,1-3.2-.5,8.6,8.6,0,0,1-2.5-1.4,6.3,6.3,0,0,1-1.6-2.3,7.3,7.3,0,0,1-.6-3,8.1,8.1,0,0,1,.6-3.1,8.4,8.4,0,0,1,1.8-2.4,7.8,7.8,0,0,1,2.6-1.7,9.7,9.7,0,0,1,3.4-.5h2l1.7.4,1.4.8,1.3,1a7.6,7.6,0,0,1,1.9,3.2,11.4,11.4,0,0,1,.5,2.3,12.8,12.8,0,0,1,.2,2.9,18.8,18.8,0,0,1-.6,5Zm-5.4-10.5a3.6,3.6,0,0,0-2.8-1,4.1,4.1,0,0,0-2.8.9,3.5,3.5,0,0,0,0,4.9,4.4,4.4,0,0,0,2.9.9,4.1,4.1,0,0,0,2.8-.9,3.3,3.3,0,0,0,1-2.4,3,3,0,0,0-1.1-2.4Z" transform="translate(87.7 -60.5)"/>
    </g>
    <g id="Group_58" data-name="Group 58">
      <rect id="Rectangle_44" data-name="Rectangle 44" class="cls-1" width="15.5" height="5.83" transform="translate(39.1 18.1)"/>
      <rect id="Rectangle_45" data-name="Rectangle 45" class="cls-1" width="15.5" height="5.83" transform="translate(39.1 27.1)"/>
      <rect id="Rectangle_46" data-name="Rectangle 46" class="cls-1" width="15.5" height="5.83" transform="translate(19.9 27.1)"/>
      <rect id="Rectangle_47" data-name="Rectangle 47" class="cls-1" width="15.5" height="5.83" transform="translate(0 27.1)"/>
      <rect id="Rectangle_48" data-name="Rectangle 48" class="cls-1" width="15.5" height="5.83" transform="translate(29.5 36.1)"/>
      <rect id="Rectangle_49" data-name="Rectangle 49" class="cls-1" width="15.5" height="5.83" transform="translate(10.2 36.1)"/>
      <rect id="Rectangle_50" data-name="Rectangle 50" class="cls-1" width="15.5" height="5.83" transform="translate(29.5 45.2)"/>
      <rect id="Rectangle_51" data-name="Rectangle 51" class="cls-1" width="15.5" height="5.83" transform="translate(19.9 18.1)"/>
      <rect id="Rectangle_52" data-name="Rectangle 52" class="cls-1" width="5.8" height="5.83" transform="translate(48.8 9)"/>
      <rect id="Rectangle_53" data-name="Rectangle 53" class="cls-1" width="5.8" height="5.83" transform="translate(48.8)"/>
      <rect id="Rectangle_54" data-name="Rectangle 54" class="cls-1" width="5.8" height="5.83" transform="translate(0 36.1)"/>
      <rect id="Rectangle_55" data-name="Rectangle 55" class="cls-1" width="5.8" height="5.83" transform="translate(9.6 18.1)"/>
      <rect id="Rectangle_56" data-name="Rectangle 56" class="cls-1" width="5.8" height="5.83" transform="translate(48.8 36.1)"/>
      <rect id="Rectangle_57" data-name="Rectangle 57" class="cls-1" width="5.8" height="5.83" transform="translate(48.8 45.2)"/>
    </g>
    <g id="Group_59" data-name="Group 59">
      <path id="Path_75" data-name="Path 75" class="cls-1" d="M-14.642,99.9a6.915,6.915,0,0,0-1.621,1.513l-1.621-1.3.972-1.189a4.43,4.43,0,0,1,1.08-.972l1.3-.54,1.729-.216a5.078,5.078,0,0,1,1.837.324,3.782,3.782,0,0,1,1.4.864,2.7,2.7,0,0,1,.864,1.3,3.566,3.566,0,0,1,.324,1.621,2.7,2.7,0,0,1-.216,1.4,3.674,3.674,0,0,1-.648,1.3,3.782,3.782,0,0,1-1.08,1.189l-1.621,1.4-2.809,2.377h6.591v2.053H-18.1v-1.837l4.754-4,1.189-1.08.756-.864a6.376,6.376,0,0,0,.432-.864,2.377,2.377,0,0,0,.108-.864A2.7,2.7,0,0,0-11.4,99.9a2.7,2.7,0,0,0-1.621-.54,2.7,2.7,0,0,0-1.621.54Z" transform="translate(87.7 -60.664)"/>
      <path id="Path_76" data-name="Path 76" class="cls-1" d="M3.957,108.869a3.458,3.458,0,0,1-1.189,1.3,3.782,3.782,0,0,1-1.621.756,6.267,6.267,0,0,1-2.053.324,5.835,5.835,0,0,1-2.053-.324,6.375,6.375,0,0,1-1.729-.756,3.133,3.133,0,0,1-1.08-1.3,3.566,3.566,0,0,1-.432-1.513,2.917,2.917,0,0,1,.648-2.053,4.646,4.646,0,0,1,1.837-1.3,5.079,5.079,0,0,1-1.4-1.189,2.917,2.917,0,0,1-.54-1.945,3.35,3.35,0,0,1,.324-1.4,3.35,3.35,0,0,1,.972-1.189l1.513-.756A5.187,5.187,0,0,1-.905,97.2a5.078,5.078,0,0,1,1.837.324l1.513.756a5.618,5.618,0,0,1,1.08,1.189,3.35,3.35,0,0,1,.324,1.4,3.782,3.782,0,0,1-.54,1.945A5.727,5.727,0,0,1,1.8,104.007a4.646,4.646,0,0,1,1.837,1.3,2.809,2.809,0,0,1,.648,1.945,3.566,3.566,0,0,1-.324,1.621Zm-2.269-2.593-.54-.648L.175,105.2H-2.094l-.864.432-.648.648a2.593,2.593,0,0,0-.216.864,1.729,1.729,0,0,0,.756,1.513,4,4,0,0,0,2.161.54,3.566,3.566,0,0,0,2.053-.54,1.729,1.729,0,0,0,.756-1.513,1.3,1.3,0,0,0-.216-.864ZM.824,99.793a2.269,2.269,0,0,0-1.729-.54,2.485,2.485,0,0,0-1.837.54,1.513,1.513,0,0,0-.648,1.3,1.621,1.621,0,0,0,.756,1.513,2.269,2.269,0,0,0,1.729.54,2.377,2.377,0,0,0,1.729-.54,1.729,1.729,0,0,0,.648-1.4,1.729,1.729,0,0,0-.648-1.4Z" transform="translate(88.657 -60.665)"/>
      <path id="Path_77" data-name="Path 77" class="cls-1" d="M8.146,104c0,.268.067.536.2.6a.8.8,0,0,0,.6.2,2.078,2.078,0,0,0,.871-.2v1.206l-.6.2-.737.134-.737-.134a1.34,1.34,0,0,1-.6-.335,1.474,1.474,0,0,1-.335-.536,1.809,1.809,0,0,1-.134-.871v-3.418H5.8V99.643h.871V97.9H8.146v1.743H9.888v1.206H8.146Z" transform="translate(90.407 -63.83)"/>
      <path id="Path_78" data-name="Path 78" class="cls-1" d="M16.374,105.68H14.9V96.9h1.474v3.418l.335-.469.469-.335a1.341,1.341,0,0,1,.536-.268h.67a2.011,2.011,0,0,1,1.675.67,2.48,2.48,0,0,1,.6,1.81v4.021H19.189v-3.619a1.608,1.608,0,0,0-.4-1.139,1.206,1.206,0,0,0-1.005-.4,1.34,1.34,0,0,0-1.005.4,1.608,1.608,0,0,0-.4,1.139Z" transform="translate(87.406 -63.5)"/>
      <path id="Path_79" data-name="Path 79" class="cls-1" d="M40.307,107.665H40.2l-4.322-6.375v9.724H33.5V97.4h2.593l4.106,6.483L44.413,97.4h2.593v13.614H44.629V101.29Z" transform="translate(79.883 -60.648)"/>
      <path id="Path_80" data-name="Path 80" class="cls-1" d="M56.223,110.774v-1.3a4.322,4.322,0,0,1-3.35,1.513l-1.4-.216-1.189-.54a2.485,2.485,0,0,1-.756-1.08,2.593,2.593,0,0,1-.324-1.3h0a3.025,3.025,0,0,1,.324-1.4,2.7,2.7,0,0,1,.864-1.081,3.566,3.566,0,0,1,1.3-.54,4.43,4.43,0,0,1,1.729-.216h1.513l1.3.324v-.324a2.161,2.161,0,0,0-.648-1.621,3.133,3.133,0,0,0-1.837-.54,3.673,3.673,0,0,0-1.621.216l-1.4.432-.648-1.945,1.729-.54a7.347,7.347,0,0,1,2.269-.216,3.977,3.977,0,0,1,4.538,4.322v6.051Zm.108-4.322-1.08-.324h-1.3a3.133,3.133,0,0,0-1.837.432,1.513,1.513,0,0,0-.54,1.189h0a1.08,1.08,0,0,0,.54,1.08,3.025,3.025,0,0,0,1.4.432l1.08-.216.864-.432.648-.648a2.593,2.593,0,0,0,.216-.864Z" transform="translate(80.737 -60.408)"/>
      <path id="Path_81" data-name="Path 81" class="cls-1" d="M63.677,110.781H61.3V100.516h2.377v2.269a4.862,4.862,0,0,1,1.4-1.837,4,4,0,0,1,2.269-.648v2.485h-.108a3.025,3.025,0,0,0-1.4.324,2.053,2.053,0,0,0-1.189.756A4.214,4.214,0,0,0,64,105.054a5.078,5.078,0,0,0-.324,1.837Z" transform="translate(81.407 -60.415)"/>
      <path id="Path_82" data-name="Path 82" class="cls-1" d="M76.688,110.457A4.43,4.43,0,0,1,74.2,111a4.862,4.862,0,0,1-2.161-.432,4.538,4.538,0,0,1-2.809-2.809,5.078,5.078,0,0,1,0-4.106,4.754,4.754,0,0,1,1.08-1.729,6.159,6.159,0,0,1,1.729-1.189A4.862,4.862,0,0,1,74.2,100.3a4.97,4.97,0,0,1,4.106,1.729l-1.4,1.621-1.189-.972a3.457,3.457,0,0,0-1.513-.324l-1.189.216a2.377,2.377,0,0,0-.972.756l-.648,1.08a3.89,3.89,0,0,0-.216,1.189,5.51,5.51,0,0,0,.216,1.4,7.564,7.564,0,0,0,.648.972l.972.756,1.3.216a3.458,3.458,0,0,0,1.513-.324l1.189-.972,1.4,1.4A5.186,5.186,0,0,1,76.688,110.457Z" transform="translate(81.773 -60.416)"/>
      <path id="Path_83" data-name="Path 83" class="cls-1" d="M82.877,111.054H80.5V96.9h2.377v5.511l.648-.756c.108-.216.432-.324.648-.54l.864-.432h1.08a3.241,3.241,0,0,1,2.7,1.08,4,4,0,0,1,.972,2.917v6.483H87.415v-5.835a3.133,3.133,0,0,0-.54-1.837,2.161,2.161,0,0,0-1.621-.648,2.269,2.269,0,0,0-1.729.648,2.593,2.593,0,0,0-.648,1.837Z" transform="translate(82.397 -60.689)"/>
      <path id="Path_84" data-name="Path 84" class="cls-1" d="M92.2,105.777V103.4h5.835v2.377Z" transform="translate(86.22 -60.025)"/>
      <path id="Path_85" data-name="Path 85" class="cls-1" d="M100.856,99.453V97.4h9.076v1.837l-3.89,3.89a3.458,3.458,0,0,1,1.513.324,3.782,3.782,0,0,1,1.3.756,2.377,2.377,0,0,1,.972,1.08,3.565,3.565,0,0,1,.324,1.621,4.43,4.43,0,0,1-.324,1.729,6.916,6.916,0,0,1-1.08,1.4,4,4,0,0,1-1.513.864,5.186,5.186,0,0,1-1.945.324,6.591,6.591,0,0,1-3.025-.648,5.726,5.726,0,0,1-2.161-1.729l1.621-1.513a8.536,8.536,0,0,0,1.621,1.3,4.106,4.106,0,0,0,2.053.432,2.7,2.7,0,0,0,1.621-.54,1.729,1.729,0,0,0,.756-1.513,2.053,2.053,0,0,0-.864-1.621,4.862,4.862,0,0,0-2.377-.54h-1.08l-.432-1.513,3.782-3.89Z" transform="translate(93.954 -60.648)"/>
      <path id="Path_86" data-name="Path 86" class="cls-1" d="M115.474,97.3H117.2v13.722h-2.377V99.785l-2.485.648-.54-1.945Z" transform="translate(94.649 -60.656)"/>
      <path id="Path_87" data-name="Path 87" class="cls-1" d="M125.25,106.225a1.582,1.582,0,0,1-.5.647,1.942,1.942,0,0,1-.863.432l-1.007.144a3.74,3.74,0,0,1-1.51-.288,4.962,4.962,0,0,1-1.366-.719l.647-1.079,1.151.647,1.151.216a1.438,1.438,0,0,0,.791-.216.863.863,0,0,0,.288-.575h0c0-.144-.072-.216-.144-.36l-.36-.216-.5-.216-.575-.144-.719-.288-.719-.36a1.942,1.942,0,0,1-.5-.575,1.438,1.438,0,0,1-.216-.791h0a1.942,1.942,0,0,1,.216-.863l.5-.647.791-.432.935-.144a4.531,4.531,0,0,1,1.366.216l1.223.575-.647,1.151-1.007-.5a2.3,2.3,0,0,0-.935-.144l-.719.144a.719.719,0,0,0-.288.5h0a.575.575,0,0,0,.144.288l.36.216.5.216.575.216.791.288.647.36a1.942,1.942,0,0,1,.5.575,1.3,1.3,0,0,1,.216.791h0A2.014,2.014,0,0,1,125.25,106.225Z" transform="translate(95.086 -65.202)"/>
      <path id="Path_88" data-name="Path 88" class="cls-1" d="M132.145,104.445c0,.288.072.575.216.647a.863.863,0,0,0,.647.216,2.517,2.517,0,0,0,1.007-.216v1.295l-.647.216-.791.144-.791-.144a.935.935,0,0,1-.647-.36,1.726,1.726,0,0,1-.432-.575,3.67,3.67,0,0,1-.144-.935v-3.668H129.7V99.77h.863V97.9h1.582v1.87h1.87v1.295h-1.87Z" transform="translate(92.208 -64.5)"/>
      <path id="Path_89" data-name="Path 89" class="cls-1" d="M152,107.665h0l-4.322-6.375v9.724H145.3V97.4h2.593L152,103.883l4.214-6.483h2.593v13.614h-2.485V101.29Z" transform="translate(86.801 -60.648)"/>
      <path id="Path_90" data-name="Path 90" class="cls-1" d="M168.024,110.775v-1.3l-1.4,1.08a3.674,3.674,0,0,1-1.945.432l-1.4-.216a3.025,3.025,0,0,1-1.189-.54,4.214,4.214,0,0,1-.864-1.081,2.485,2.485,0,0,1-.216-1.3h0a2.917,2.917,0,0,1,.216-1.4,3.025,3.025,0,0,1,.972-1.081,3.566,3.566,0,0,1,1.3-.54,4.214,4.214,0,0,1,1.621-.216h1.621l1.3.324v-.324a2.161,2.161,0,0,0-.648-1.621,3.241,3.241,0,0,0-1.945-.54,3.458,3.458,0,0,0-1.513.216l-1.4.432-.648-1.945,1.729-.54a6.7,6.7,0,0,1,2.161-.216,4.538,4.538,0,0,1,3.458,1.08,4.322,4.322,0,0,1,1.08,3.241v6.051Zm0-4.322-1.08-.324h-1.3a2.7,2.7,0,0,0-1.729.432,1.4,1.4,0,0,0-.648,1.189h0a1.189,1.189,0,0,0,.648,1.08,2.7,2.7,0,0,0,1.4.432l1.08-.216.864-.432.54-.648a1.3,1.3,0,0,0,.216-.864Z" transform="translate(86.856 -60.409)"/>
      <path id="Path_91" data-name="Path 91" class="cls-1" d="M175.477,110.781H173.1V100.516h2.377v2.269a3.674,3.674,0,0,1,3.674-2.485v2.485h-.108a3.457,3.457,0,0,0-1.513.324,1.837,1.837,0,0,0-1.081.756,4.43,4.43,0,0,0-.756,1.189,9.508,9.508,0,0,0-.216,1.837Z" transform="translate(87.831 -60.415)"/>
      <path id="Path_92" data-name="Path 92" class="cls-1" d="M188.379,110.457a4.214,4.214,0,0,1-2.485.54,4.43,4.43,0,0,1-2.053-.432,4.754,4.754,0,0,1-1.729-1.08,6.159,6.159,0,0,1-1.189-1.729,6.7,6.7,0,0,1,0-4.106,5.727,5.727,0,0,1,2.917-2.917A4.538,4.538,0,0,1,186,100.3a5.186,5.186,0,0,1,2.377.432,6.591,6.591,0,0,1,1.729,1.3L188.6,103.65a5.187,5.187,0,0,0-1.189-.972,2.809,2.809,0,0,0-1.513-.324l-1.189.216a2.917,2.917,0,0,0-.864.756,2.269,2.269,0,0,0-.648,1.08,3.89,3.89,0,0,0-.216,1.189,5.511,5.511,0,0,0,.216,1.4,1.945,1.945,0,0,0,.648.972,2.377,2.377,0,0,0,.972.756l1.3.216a3.025,3.025,0,0,0,1.4-.324,3.349,3.349,0,0,0,1.189-.972l1.513,1.4a4.646,4.646,0,0,1-1.837,1.4Z" transform="translate(88.434 -60.415)"/>
      <path id="Path_93" data-name="Path 93" class="cls-1" d="M194.677,111.054H192.3V96.9h2.377v5.511l.54-.756.756-.54.864-.432h1.08a3.241,3.241,0,0,1,2.7,1.08,4,4,0,0,1,.972,2.917v6.483h-2.377v-5.835a3.133,3.133,0,0,0-.54-1.837,2.269,2.269,0,0,0-1.729-.648,2.161,2.161,0,0,0-1.621.648,2.593,2.593,0,0,0-.648,1.837Z" transform="translate(89.376 -60.689)"/>
    </g>

  </g>
</svg>
