<svg xmlns="http://www.w3.org/2000/svg" viewBox="0 0 184 31.327" id="social-icons-svg">
  <defs>
    <style>
      #Group_19 {
        fill: #fff;
      }
    </style>
  </defs>
  <g id="Group_19" data-name="Group 19" transform="translate(-1684 -1002)">
    <g id="instagram-icon" data-name="Group 15" transform="translate(1760.981 1002.031)">
      <path id="Path_8" data-name="Path 8" class="cls-1" d="M30,14.967c0,2.584.041,5.168-.012,7.749a7.115,7.115,0,0,1-3.68,6.23,7.283,7.283,0,0,1-3.858,1.024q-7.44,0-14.878,0A7.431,7.431,0,0,1,2.63,28.185a7.124,7.124,0,0,1-2.5-4.367,7.835,7.835,0,0,1-.1-1.257q-.009-7.589,0-15.169A7.166,7.166,0,0,1,2.555,1.823,7.334,7.334,0,0,1,6.245.08,7.754,7.754,0,0,1,7.556-.028c4.972,0,9.947-.008,14.919,0a7.373,7.373,0,0,1,5.8,2.666,7.016,7.016,0,0,1,1.685,3.935A8.466,8.466,0,0,1,30,7.428q.006,3.77,0,7.538Zm-27.652,0q0,3.192,0,6.384a5.836,5.836,0,0,0,.687,2.871,6.144,6.144,0,0,0,5.637,3.4c4.224.036,8.447.01,12.671.01a6.361,6.361,0,0,0,1.833-.265,6.219,6.219,0,0,0,2.929-1.863,5.87,5.87,0,0,0,1.557-3.969c.014-4.381.006-8.759,0-13.14a5.633,5.633,0,0,0-.337-1.9A6.182,6.182,0,0,0,24.7,3.248a6.073,6.073,0,0,0-3.23-.944q-6.406-.012-12.814,0c-.143,0-.286.006-.43.016A6.206,6.206,0,0,0,4.4,3.939,6.058,6.058,0,0,0,2.348,8.583Q2.351,11.784,2.352,14.971Z" transform="translate(0 0)"/>
      <path id="Path_9" data-name="Path 9" class="cls-1" d="M373.137,379.572A7.679,7.679,0,1,1,365.483,372,7.611,7.611,0,0,1,373.137,379.572Zm-7.462-5.72a5.6,5.6,0,0,0-3.326.95,5.543,5.543,0,0,0-2.489,5.392,5.284,5.284,0,0,0,1.428,3.144,5.65,5.65,0,0,0,8.881-6.928A5.46,5.46,0,0,0,365.675,373.853Z" transform="translate(-350.447 -364.557)"/>
      <path id="Path_10" data-name="Path 10" class="cls-1" d="M1009.2,246.665a2.309,2.309,0,1,1,2.3,2.261A2.281,2.281,0,0,1,1009.2,246.665Z" transform="translate(-988.54 -239.523)"/>
    </g>
    <path id="twitter-icon" data-name="Path 62" class="cls-1" d="M14.972,30H1.778A1.609,1.609,0,0,1,.1,28.83a2.591,2.591,0,0,1-.08-.657Q0,15.008,0,1.851A1.747,1.747,0,0,1,1.858,0Q15,.024,28.15,0A1.743,1.743,0,0,1,30,1.859Q29.988,15,29.992,28.141A1.666,1.666,0,0,1,28.126,30ZM2.86,23.259l-.048.1a1.8,1.8,0,0,0,.4.345c.713.353,1.418.721,2.155,1a15.2,15.2,0,0,0,7.258.769,15.265,15.265,0,0,0,4.67-1.355A13.846,13.846,0,0,0,22.27,20.1a15.267,15.267,0,0,0,3.469-9.49,1.722,1.722,0,0,1,.569-1.306q.7-.673,1.346-1.395a1.292,1.292,0,0,0,.152-.449,3.618,3.618,0,0,0-.5-.1,1.54,1.54,0,0,0-.368.088,3.034,3.034,0,0,1-.529.088.965.965,0,0,1-.28-.072,1.111,1.111,0,0,1,.1-.289c.136-.184.3-.353.449-.537a5.133,5.133,0,0,0,.5-.729.515.515,0,0,0,.024-.457.551.551,0,0,0-.449-.1,4.179,4.179,0,0,0-.809.273,2.079,2.079,0,0,1-1.666.024c-.489-.192-.961-.441-1.434-.673a5.349,5.349,0,0,0-7.762,5.178c.032.449-.064.561-.5.657a1.642,1.642,0,0,1-.441.04,11.176,11.176,0,0,1-2.94-.617A15.387,15.387,0,0,1,5.255,6.58a2.346,2.346,0,0,0-.441-.361.732.732,0,0,0-1.17.457,5.311,5.311,0,0,0,.024,2.917,6.165,6.165,0,0,0,1.242,2.2,1.881,1.881,0,0,1,.216.521,2.159,2.159,0,0,1-.6.008c-.36-.1-.713-.248-1.089-.385a4.908,4.908,0,0,0,.5,2.324,5.568,5.568,0,0,0,2.628,2.573c.208.1.4.24.6.361-.008.04-.024.08-.032.12-.385.008-.769.024-1.154.032-.352,0-.457.088-.377.433a2.663,2.663,0,0,0,.352.866A5.333,5.333,0,0,0,8.9,20.791c.256.08.585.144.625.465.04.337-.288.465-.529.6A10.369,10.369,0,0,1,3.4,23.267C3.212,23.251,3.036,23.259,2.86,23.259Z" transform="translate(1838 1003.327)"/>
    <path id="facebook-icon" data-name="Exclusion 1" class="cls-1" d="M-3983,30h-18a6.007,6.007,0,0,1-6-6V6a6.007,6.007,0,0,1,6-6h18a6.007,6.007,0,0,1,6,6V24A6.007,6.007,0,0,1-3983,30Zm-11.866-17.066v3.2h1.933v10.4h4.735v-10.4h2.8l.667-3.2h-3.466V10.467c0-.014.286-1.4,1.532-1.4h1.934V5.733h-4.134s-.07,0-.186,0c-.91,0-3.881.241-3.881,3.338v3.867Z" transform="translate(5691 1002)"/>
  </g>
</svg>
